<svg width="56" height="56" viewBox="0 0 56 56" fill="none" xmlns="http://www.w3.org/2000/svg">
<path fill-rule="evenodd" clip-rule="evenodd" d="M28.0004 0C12.5613 0 0 12.5613 0 27.9996C0 43.4395 12.5613 56 28.0004 56C43.4395 56 56.0008 43.4402 56.0008 28.0004C56.0008 12.5613 43.4402 0 28.0004 0ZM46.5135 12.9121C49.9627 17.1158 51.8687 22.3737 51.9144 27.8111C51.1254 27.6426 43.2185 26.0407 35.2605 27.0406C34.6145 25.4509 33.9134 23.884 33.1586 22.343C42.0014 18.7311 46.0097 13.5953 46.5135 12.9121ZM28.0004 4.11961C34.0774 4.11961 39.6313 6.39927 43.8552 10.1456C43.4248 10.7592 39.8245 15.5983 31.3202 18.7859C27.4015 11.5853 23.057 5.66978 22.3963 4.78419C24.2316 4.34235 26.1127 4.11928 28.0004 4.11961ZM17.8331 6.39309C18.4629 7.25704 22.7371 13.1803 26.6998 20.224C15.5125 23.1953 5.65896 23.1513 4.58945 23.1381C6.13962 15.7173 11.141 9.54906 17.8331 6.39309ZM4.08329 28.0359C4.08329 27.7917 4.08793 27.5483 4.09566 27.3057C5.14198 27.3273 16.7327 27.4764 28.6758 23.9024C29.3601 25.237 30.0067 26.5907 30.6147 27.9617C30.2986 28.0506 29.9841 28.1449 29.6719 28.2461C17.337 32.2328 10.7731 43.1018 10.2314 44.0291C6.41241 39.7881 4.08329 34.1794 4.08329 28.0359ZM28.0004 51.9546C22.68 51.96 17.5112 50.1826 13.3194 46.9061C13.7506 46.0259 18.5935 36.67 32.0829 31.9701L32.2413 31.9168C35.599 40.6421 36.9869 47.9555 37.3431 50.0551C34.3885 51.3109 31.2108 51.957 28.0004 51.9546ZM41.3631 47.8635C41.1189 46.4084 39.8461 39.4072 36.7172 30.8109C44.2115 29.6116 50.7962 31.5752 51.6146 31.8325C50.5489 38.4884 46.7291 44.2354 41.3631 47.8635Z" fill="white"/>
<path d="M4.08329 28.0359C4.08329 27.7917 4.08793 27.5483 4.09566 27.3057C5.14198 27.3273 16.7327 27.4764 28.6758 23.9024C29.3601 25.237 30.0067 26.5907 30.6147 27.9617C30.2986 28.0506 29.9841 28.1449 29.6719 28.2461C17.337 32.2328 10.7731 43.1018 10.2314 44.0291C6.41241 39.7881 4.08329 34.1794 4.08329 28.0359Z" fill="white"/>
<path d="M28.0004 51.9546C22.68 51.96 17.5112 50.1826 13.3194 46.9061C13.7506 46.0259 18.5935 36.67 32.0829 31.9701L32.2413 31.9168C35.599 40.6421 36.9869 47.9555 37.3431 50.0551C34.3885 51.3109 31.2108 51.957 28.0004 51.9546Z" fill="white"/>
<path d="M41.3631 47.8635C41.1189 46.4084 39.8461 39.4072 36.7172 30.8109C44.2115 29.6116 50.7962 31.5752 51.6146 31.8325C50.5489 38.4884 46.7291 44.2354 41.3631 47.8635Z" fill="white"/>
<path d="M46.5135 12.9121C49.9627 17.1158 51.8687 22.3737 51.9144 27.8111C51.1254 27.6426 43.2185 26.0407 35.2605 27.0406C34.6145 25.4509 33.9134 23.884 33.1586 22.343C42.0014 18.7311 46.0097 13.5953 46.5135 12.9121Z" fill="white"/>
<path d="M28.0004 4.11961C34.0774 4.11961 39.6313 6.39927 43.8552 10.1456C43.4248 10.7592 39.8245 15.5983 31.3202 18.7859C27.4015 11.5853 23.057 5.66978 22.3963 4.78419C24.2316 4.34235 26.1127 4.11928 28.0004 4.11961Z" fill="white"/>
<path d="M17.8331 6.39309C18.4629 7.25704 22.7371 13.1803 26.6998 20.224C15.5125 23.1953 5.65896 23.1513 4.58945 23.1381C6.13962 15.7173 11.141 9.54906 17.8331 6.39309Z" fill="white"/>
<path fill-rule="evenodd" clip-rule="evenodd" d="M28.0004 0C12.5613 0 0 12.5613 0 27.9996C0 43.4395 12.5613 56 28.0004 56C43.4395 56 56.0008 43.4402 56.0008 28.0004C56.0008 12.5613 43.4402 0 28.0004 0ZM46.5135 12.9121C49.9627 17.1158 51.8687 22.3737 51.9144 27.8111C51.1254 27.6426 43.2185 26.0407 35.2605 27.0406C34.6145 25.4509 33.9134 23.884 33.1586 22.343C42.0014 18.7311 46.0097 13.5953 46.5135 12.9121ZM28.0004 4.11961C34.0774 4.11961 39.6313 6.39927 43.8552 10.1456C43.4248 10.7592 39.8245 15.5983 31.3202 18.7859C27.4015 11.5853 23.057 5.66978 22.3963 4.78419C24.2316 4.34236 26.1127 4.11928 28.0004 4.11961ZM17.8331 6.39309C18.4629 7.25704 22.7371 13.1803 26.6998 20.224C15.5125 23.1953 5.65896 23.1513 4.58945 23.1381C6.13962 15.7173 11.141 9.54906 17.8331 6.39309ZM4.08329 28.0359C4.08329 27.7917 4.08793 27.5483 4.09566 27.3057C5.14198 27.3273 16.7327 27.4764 28.6758 23.9024C29.3601 25.237 30.0067 26.5907 30.6147 27.9617C30.2986 28.0506 29.9841 28.1449 29.6719 28.2461C17.337 32.2328 10.7731 43.1018 10.2314 44.0291C6.41241 39.7882 4.08329 34.1794 4.08329 28.0359ZM28.0004 51.9546C22.68 51.96 17.5112 50.1826 13.3194 46.9061C13.7506 46.0259 18.5935 36.67 32.0829 31.9701L32.2413 31.9168C35.599 40.6421 36.9869 47.9555 37.3431 50.0551C34.3885 51.3109 31.2108 51.957 28.0004 51.9546ZM41.3631 47.8636C41.1189 46.4084 39.8461 39.4072 36.7172 30.8109C44.2115 29.6116 50.7962 31.5752 51.6146 31.8325C50.5489 38.4884 46.7291 44.2354 41.3631 47.8636Z" fill="#0C0C0D"/>
</svg>
