<svg width="56" height="56" viewBox="0 0 56 56" fill="none" xmlns="http://www.w3.org/2000/svg">
<path d="M54.691 12.691L43.309 1.309C42.784 0.784 42.14 0.399 41.44 0.189V0H2.24C1.001 0 0 1.001 0 2.24V53.76C0 54.999 1.001 56 2.24 56H53.76C54.999 56 56 54.999 56 53.76V15.855C56 14.665 55.531 13.531 54.691 12.691ZM19.04 5.04H36.96V12.32H19.04V5.04ZM50.96 50.96H5.04V5.04H14.56V14.56C14.56 15.799 15.561 16.8 16.8 16.8H39.2C40.439 16.8 41.44 15.799 41.44 14.56V6.566L50.96 16.086V50.96ZM28 23.1C22.435 23.1 17.92 27.615 17.92 33.18C17.92 38.745 22.435 43.26 28 43.26C33.565 43.26 38.08 38.745 38.08 33.18C38.08 27.615 33.565 23.1 28 23.1ZM28 38.78C24.906 38.78 22.4 36.274 22.4 33.18C22.4 30.086 24.906 27.58 28 27.58C31.094 27.58 33.6 30.086 33.6 33.18C33.6 36.274 31.094 38.78 28 38.78Z" fill="white"/>
<path fill-rule="evenodd" clip-rule="evenodd" d="M50.96 50.96H5.04V5.04H14.56V14.56C14.56 15.799 15.561 16.8 16.8 16.8H39.2C40.439 16.8 41.44 15.799 41.44 14.56V6.566L50.96 16.086V50.96ZM17.92 33.18C17.92 27.615 22.435 23.1 28 23.1C33.565 23.1 38.08 27.615 38.08 33.18C38.08 38.745 33.565 43.26 28 43.26C22.435 43.26 17.92 38.745 17.92 33.18Z" fill="white"/>
<path d="M28 38.78C24.906 38.78 22.4 36.274 22.4 33.18C22.4 30.086 24.906 27.58 28 27.58C31.094 27.58 33.6 30.086 33.6 33.18C33.6 36.274 31.094 38.78 28 38.78Z" fill="white"/>
<path d="M19.04 5.04H36.96V12.32H19.04V5.04Z" fill="white"/>
<path d="M54.691 12.691L43.309 1.309C42.784 0.784 42.14 0.399 41.44 0.189V0H2.24C1.001 0 0 1.001 0 2.24V53.76C0 54.999 1.001 56 2.24 56H53.76C54.999 56 56 54.999 56 53.76V15.855C56 14.665 55.531 13.531 54.691 12.691ZM19.04 5.04H36.96V12.32H19.04V5.04ZM50.96 50.96H5.04V5.04H14.56V14.56C14.56 15.799 15.561 16.8 16.8 16.8H39.2C40.439 16.8 41.44 15.799 41.44 14.56V6.566L50.96 16.086V50.96ZM28 23.1C22.435 23.1 17.92 27.615 17.92 33.18C17.92 38.745 22.435 43.26 28 43.26C33.565 43.26 38.08 38.745 38.08 33.18C38.08 27.615 33.565 23.1 28 23.1ZM28 38.78C24.906 38.78 22.4 36.274 22.4 33.18C22.4 30.086 24.906 27.58 28 27.58C31.094 27.58 33.6 30.086 33.6 33.18C33.6 36.274 31.094 38.78 28 38.78Z" fill="#0C0C0D"/>
</svg>
