<svg width="59" height="56" viewBox="0 0 59 56" fill="none" xmlns="http://www.w3.org/2000/svg">
<path fill-rule="evenodd" clip-rule="evenodd" d="M29.2169 2.54431C14.4745 2.54431 2.53944 14.4185 2.53944 29.0416C2.53944 39.7788 8.97446 49.0187 18.2362 53.1748C19.2052 53.6106 20.1524 53.4377 20.8925 52.8826C21.3019 52.5638 21.6318 52.1546 21.8565 51.687C22.0813 51.2194 22.1946 50.7061 22.1878 50.1873V48.7995L18.8839 48.3515C18.8594 48.3482 18.835 48.3442 18.8108 48.3394C16.9896 47.9839 15.7601 47.3436 14.8592 46.4208C14.102 45.6441 13.6394 44.714 13.2474 43.9252L13.1111 43.6501C12.7488 42.8944 12.3532 42.1551 11.9254 41.4344C11.5967 40.9134 11.341 40.6456 11.0878 40.4776C10.445 40.0515 9.82662 39.3284 9.82662 38.4251C9.82442 38.1651 9.88008 37.9079 9.98957 37.6721C10.0991 37.4363 10.2596 37.2277 10.4597 37.0616C10.8372 36.7628 11.3077 36.6059 11.789 36.6185C12.3295 36.6185 12.8384 36.7841 13.262 36.974C13.6954 37.1688 14.1264 37.4269 14.5281 37.6947C15.5069 38.3472 16.471 39.119 17.2867 40.071C18.1364 41.0595 18.7378 41.6877 19.6435 41.8167C20.3885 41.9238 21.1482 41.9263 21.7398 41.8995C21.822 41.4311 21.9576 40.9736 22.144 40.536C21.4214 40.3674 20.7086 40.1593 20.0087 39.9127C18.4164 39.3479 16.6415 38.4689 15.4484 37.1371C14.1385 35.6714 13.3278 34.364 12.8749 32.8349C12.4342 31.3449 12.3612 29.7306 12.3612 27.7439C12.3612 24.7005 13.6784 22.1367 14.6669 20.7757C14.2871 19.5841 14.0141 18.3611 13.8512 17.1211C13.7434 16.3391 13.7442 15.546 13.8537 14.7643C13.9754 14.0509 14.2798 13.1744 15.0808 12.6461C15.8526 12.1323 16.7583 12.1542 17.4644 12.2857C18.1973 12.4245 18.9593 12.7288 19.6605 13.077C20.8024 13.6419 21.937 14.3966 22.7868 15.037C24.2525 14.606 26.8455 14.0509 29.1901 13.9998H29.2437C31.5908 14.0509 34.0669 14.606 35.4961 15.0345C36.3483 14.3966 37.4804 13.6394 38.6199 13.077C39.3211 12.7288 40.0807 12.4245 40.816 12.2857C41.5221 12.1542 42.4278 12.1323 43.2021 12.6436C44.0007 13.1744 44.3074 14.0509 44.4267 14.7643C44.5509 15.5069 44.5217 16.3371 44.4267 17.1211C44.2646 18.361 43.9924 19.584 43.6135 20.7757C44.602 22.1391 45.9192 24.7029 45.9192 27.7439C45.9192 29.7306 45.8462 31.3449 45.4079 32.8325C44.9526 34.3664 44.1419 35.6714 42.832 37.1371C41.639 38.4689 39.864 39.3479 38.2717 39.9127C37.4265 40.2098 36.5627 40.4514 35.686 40.6359C35.9855 41.5416 36.0926 42.2744 36.0926 42.6956V50.219C36.0926 51.3633 36.6258 52.3397 37.383 52.9094C38.1183 53.4669 39.063 53.6398 40.032 53.2162C49.3814 49.0966 55.8919 39.8324 55.8919 29.0392C55.8919 14.4185 43.9617 2.54431 29.2169 2.54431ZM23.0716 44.3367C22.4386 44.4267 23.0692 44.3367 23.0692 44.3367H23.0619L23.0424 44.3415L22.9718 44.3513C22.6102 44.3938 22.2472 44.4238 21.8835 44.4413C21.1969 44.473 20.2546 44.4754 19.288 44.3367C17.3621 44.064 16.191 42.7005 15.4338 41.8143L15.3608 41.7315C15.1132 41.4443 14.8473 41.1735 14.5646 40.9207C14.8154 41.3833 15.0759 41.8995 15.3559 42.4546L15.3803 42.5033L15.5044 42.7565C15.9305 43.6038 16.2105 44.1687 16.6755 44.641C17.1284 45.1036 17.8345 45.5516 19.2612 45.834L23.6292 46.4257C23.9342 46.4669 24.214 46.6176 24.4164 46.8495C24.6188 47.0815 24.7301 47.379 24.7297 47.6869V50.1873C24.7297 52.1351 23.8166 53.8711 22.4167 54.9229C21.6817 55.4846 20.8073 55.8349 19.8878 55.9361C18.9683 56.0374 18.0386 55.8857 17.199 55.4975C7.06562 50.9519 0 40.8306 0 29.0416C0 12.9918 13.0916 0 29.2169 0C45.3422 0 58.4338 12.9918 58.4338 29.0416C58.4338 40.8915 51.2781 51.0395 41.0571 55.5462C40.2167 55.9271 39.2887 56.0723 38.3722 55.9664C37.4557 55.8604 36.5853 55.5073 35.854 54.9448C35.131 54.3882 34.5467 53.6716 34.1471 52.8512C33.7475 52.0308 33.5433 51.129 33.5507 50.2166V42.6932C33.5507 42.5228 33.4314 41.5391 32.7668 40.2171C32.675 40.0337 32.6288 39.831 32.632 39.626C32.6352 39.4211 32.6878 39.2199 32.7853 39.0395C32.8827 38.8592 33.0222 38.705 33.1919 38.59C33.3616 38.475 33.5565 38.4025 33.7601 38.3788C34.5953 38.2863 36.0025 38.0161 37.422 37.5121C38.8682 37.0008 40.1659 36.2996 40.9378 35.4377C42.0845 34.157 42.6567 33.1734 42.9708 32.1094C43.297 31.0064 43.3798 29.7233 43.3798 27.7439C43.3798 24.9658 41.919 22.6309 41.247 21.8786C41.0944 21.7086 40.9904 21.5006 40.9459 21.2766C40.9013 21.0526 40.9179 20.8207 40.9938 20.6052C41.3346 19.6459 41.7485 18.1534 41.9068 16.8216C41.9847 16.1521 41.9896 15.5921 41.9214 15.1879C41.9061 15.0401 41.8614 14.8969 41.7899 14.7667C41.6223 14.7377 41.4504 14.7452 41.2859 14.7886C40.872 14.8665 40.3437 15.0613 39.7447 15.3584C38.5517 15.9476 37.31 16.8192 36.5406 17.4425C36.3709 17.5802 36.1685 17.6716 35.9531 17.7078C35.7376 17.7441 35.5164 17.724 35.3111 17.6494C33.3397 17.0046 31.2892 16.6335 29.2169 16.5465C26.7651 16.6049 23.936 17.3013 22.9694 17.6494C22.764 17.724 22.5428 17.7441 22.3273 17.7078C22.1119 17.6716 21.9095 17.5802 21.7398 17.4425C20.7448 16.6415 19.6713 15.9432 18.5357 15.3584C18.048 15.1023 17.5291 14.9108 16.9921 14.7886C16.8284 14.7455 16.6573 14.7381 16.4905 14.7667C16.4189 14.8969 16.3742 15.0401 16.359 15.1879C16.2909 15.5921 16.2957 16.1521 16.3736 16.8216C16.5319 18.1534 16.9482 19.6459 17.2867 20.6052C17.4401 21.0435 17.3451 21.5304 17.0335 21.8786C16.3615 22.6309 14.9006 24.9658 14.9006 27.7439C14.9006 29.7209 14.9834 31.0064 15.3097 32.1094C15.6262 33.1734 16.1959 34.1546 17.3402 35.4377C18.1145 36.2996 19.4098 37.0008 20.8584 37.5121C22.0436 37.9315 23.2705 38.2221 24.5179 38.3788C24.7745 38.4064 25.0167 38.5114 25.2121 38.68C25.4076 38.8485 25.5472 39.0726 25.6122 39.3223C25.6772 39.5721 25.6646 39.8358 25.5761 40.0783C25.4876 40.3207 25.3274 40.5305 25.1168 40.6797C24.7151 40.967 24.4497 41.4831 24.3012 42.0797C24.2245 42.3868 24.1788 42.7008 24.1648 43.017V43.0633C24.1679 43.372 24.0588 43.6713 23.8577 43.9055C23.6566 44.1398 23.3772 44.293 23.0716 44.3367Z" fill="white"/>
<path d="M29.2169 2.54431C14.4745 2.54431 2.53944 14.4185 2.53944 29.0416C2.53944 39.7788 8.97446 49.0187 18.2362 53.1748C19.2052 53.6106 20.1524 53.4377 20.8925 52.8826C21.3019 52.5638 21.6318 52.1546 21.8565 51.687C22.0813 51.2194 22.1946 50.7061 22.1878 50.1873V48.7995L18.8839 48.3515C18.8594 48.3482 18.835 48.3442 18.8108 48.3394C16.9896 47.9839 15.7601 47.3436 14.8592 46.4208C14.102 45.6441 13.6394 44.714 13.2474 43.9252L13.1111 43.6501C12.7488 42.8944 12.3532 42.1551 11.9254 41.4344C11.5967 40.9134 11.341 40.6456 11.0878 40.4776C10.445 40.0515 9.82662 39.3284 9.82662 38.4251C9.82442 38.1651 9.88008 37.9079 9.98957 37.6721C10.0991 37.4363 10.2596 37.2277 10.4597 37.0616C10.8372 36.7628 11.3077 36.6059 11.789 36.6185C12.3295 36.6185 12.8384 36.7841 13.262 36.974C13.6954 37.1688 14.1264 37.4269 14.5281 37.6947C15.5069 38.3472 16.471 39.119 17.2867 40.071C18.1364 41.0595 18.7378 41.6877 19.6435 41.8167C20.3885 41.9238 21.1482 41.9263 21.7398 41.8995C21.822 41.4311 21.9576 40.9736 22.144 40.536C21.4214 40.3674 20.7086 40.1593 20.0087 39.9127C18.4164 39.3479 16.6415 38.4689 15.4484 37.1371C14.1385 35.6714 13.3278 34.364 12.8749 32.8349C12.4342 31.3449 12.3612 29.7306 12.3612 27.7439C12.3612 24.7005 13.6784 22.1367 14.6669 20.7757C14.2871 19.5841 14.0141 18.3611 13.8512 17.1211C13.7434 16.3391 13.7442 15.546 13.8537 14.7643C13.9754 14.0509 14.2798 13.1744 15.0808 12.6461C15.8526 12.1323 16.7583 12.1542 17.4644 12.2857C18.1973 12.4245 18.9593 12.7288 19.6605 13.077C20.8024 13.6419 21.937 14.3966 22.7868 15.037C24.2525 14.606 26.8455 14.0509 29.1901 13.9998H29.2437C31.5908 14.0509 34.0669 14.606 35.4961 15.0345C36.3483 14.3966 37.4804 13.6394 38.6199 13.077C39.3211 12.7288 40.0807 12.4245 40.816 12.2857C41.5221 12.1542 42.4278 12.1323 43.2021 12.6436C44.0007 13.1744 44.3074 14.0509 44.4267 14.7643C44.5509 15.5069 44.5217 16.3371 44.4267 17.1211C44.2646 18.361 43.9924 19.584 43.6135 20.7757C44.602 22.1391 45.9192 24.7029 45.9192 27.7439C45.9192 29.7306 45.8462 31.3449 45.4079 32.8325C44.9526 34.3664 44.1419 35.6714 42.832 37.1371C41.639 38.4689 39.864 39.3479 38.2717 39.9127C37.4265 40.2098 36.5627 40.4514 35.686 40.6359C35.9855 41.5416 36.0926 42.2744 36.0926 42.6956V50.219C36.0926 51.3633 36.6258 52.3397 37.383 52.9094C38.1183 53.4669 39.063 53.6398 40.032 53.2162C49.3814 49.0966 55.8919 39.8324 55.8919 29.0392C55.8919 14.4185 43.9617 2.54431 29.2169 2.54431Z" fill="white"/>
<path fill-rule="evenodd" clip-rule="evenodd" d="M29.2169 2.54431C14.4745 2.54431 2.53944 14.4185 2.53944 29.0416C2.53944 39.7788 8.97446 49.0187 18.2362 53.1748C19.2052 53.6106 20.1524 53.4377 20.8925 52.8826C21.3019 52.5638 21.6318 52.1546 21.8565 51.687C22.0813 51.2194 22.1946 50.7061 22.1878 50.1873V48.7995L18.8839 48.3515C18.8594 48.3482 18.835 48.3442 18.8108 48.3394C16.9896 47.9839 15.7601 47.3436 14.8592 46.4208C14.102 45.6441 13.6394 44.714 13.2474 43.9252L13.1111 43.6501C12.7488 42.8944 12.3532 42.1551 11.9254 41.4344C11.5967 40.9134 11.341 40.6456 11.0878 40.4776C10.445 40.0515 9.82662 39.3284 9.82662 38.4251C9.82442 38.1651 9.88008 37.9079 9.98957 37.6721C10.0991 37.4363 10.2596 37.2277 10.4597 37.0616C10.8372 36.7628 11.3077 36.6059 11.789 36.6185C12.3295 36.6185 12.8384 36.7841 13.262 36.974C13.6954 37.1688 14.1264 37.4269 14.5281 37.6947C15.5069 38.3472 16.471 39.119 17.2867 40.071C18.1364 41.0595 18.7378 41.6877 19.6435 41.8167C20.3885 41.9238 21.1482 41.9263 21.7398 41.8995C21.822 41.4311 21.9576 40.9736 22.144 40.536C21.4214 40.3674 20.7086 40.1593 20.0087 39.9127C18.4164 39.3479 16.6415 38.4689 15.4484 37.1371C14.1385 35.6714 13.3278 34.364 12.8749 32.8349C12.4342 31.3449 12.3612 29.7306 12.3612 27.7439C12.3612 24.7005 13.6784 22.1367 14.6669 20.7757C14.2871 19.5841 14.0141 18.3611 13.8512 17.1211C13.7434 16.3391 13.7442 15.546 13.8537 14.7643C13.9754 14.0509 14.2798 13.1744 15.0808 12.6461C15.8526 12.1323 16.7583 12.1542 17.4644 12.2857C18.1973 12.4245 18.9593 12.7288 19.6605 13.077C20.8024 13.6419 21.937 14.3966 22.7868 15.037C24.2525 14.606 26.8455 14.0509 29.1901 13.9998H29.2437C31.5908 14.0509 34.0669 14.606 35.4961 15.0345C36.3483 14.3966 37.4804 13.6394 38.6199 13.077C39.3211 12.7288 40.0807 12.4245 40.816 12.2857C41.5221 12.1542 42.4278 12.1323 43.2021 12.6436C44.0007 13.1744 44.3074 14.0509 44.4267 14.7643C44.5509 15.5069 44.5217 16.3371 44.4267 17.1211C44.2646 18.361 43.9924 19.584 43.6135 20.7757C44.602 22.1391 45.9192 24.7029 45.9192 27.7439C45.9192 29.7306 45.8462 31.3449 45.4079 32.8325C44.9526 34.3664 44.1419 35.6714 42.832 37.1371C41.639 38.4689 39.864 39.3479 38.2717 39.9127C37.4265 40.2098 36.5627 40.4514 35.686 40.6359C35.9855 41.5416 36.0926 42.2744 36.0926 42.6956V50.219C36.0926 51.3633 36.6258 52.3397 37.383 52.9094C38.1183 53.4669 39.063 53.6398 40.032 53.2162C49.3814 49.0966 55.8919 39.8324 55.8919 29.0392C55.8919 14.4185 43.9617 2.54431 29.2169 2.54431ZM23.0716 44.3367C22.4386 44.4267 23.0692 44.3367 23.0692 44.3367H23.0619L23.0424 44.3415L22.9718 44.3513C22.6102 44.3938 22.2472 44.4238 21.8835 44.4413C21.1969 44.473 20.2546 44.4754 19.288 44.3367C17.3621 44.064 16.191 42.7005 15.4338 41.8143L15.3608 41.7315C15.1132 41.4443 14.8473 41.1735 14.5646 40.9207C14.8154 41.3833 15.0759 41.8995 15.3559 42.4546L15.3803 42.5033L15.5044 42.7565C15.9305 43.6038 16.2105 44.1687 16.6755 44.641C17.1284 45.1036 17.8345 45.5516 19.2612 45.834L23.6292 46.4257C23.9342 46.4669 24.214 46.6176 24.4164 46.8495C24.6188 47.0815 24.7301 47.379 24.7297 47.6869V50.1873C24.7297 52.1351 23.8166 53.8711 22.4167 54.9229C21.6817 55.4846 20.8073 55.8349 19.8878 55.9361C18.9683 56.0374 18.0386 55.8857 17.199 55.4975C7.06562 50.9519 0 40.8306 0 29.0416C0 12.9918 13.0916 0 29.2169 0C45.3422 0 58.4338 12.9918 58.4338 29.0416C58.4338 40.8915 51.2781 51.0395 41.0571 55.5462C40.2167 55.9271 39.2887 56.0723 38.3722 55.9664C37.4557 55.8604 36.5853 55.5073 35.854 54.9448C35.131 54.3882 34.5467 53.6716 34.1471 52.8512C33.7475 52.0308 33.5433 51.129 33.5507 50.2166V42.6932C33.5507 42.5228 33.4314 41.5391 32.7668 40.2171C32.675 40.0337 32.6288 39.831 32.632 39.626C32.6352 39.4211 32.6878 39.2199 32.7853 39.0395C32.8827 38.8592 33.0222 38.705 33.1919 38.59C33.3616 38.475 33.5565 38.4025 33.7601 38.3788C34.5953 38.2863 36.0025 38.0161 37.422 37.5121C38.8682 37.0008 40.1659 36.2996 40.9378 35.4377C42.0845 34.157 42.6567 33.1734 42.9708 32.1094C43.297 31.0064 43.3798 29.7233 43.3798 27.7439C43.3798 24.9658 41.919 22.6309 41.247 21.8786C41.0944 21.7086 40.9904 21.5006 40.9459 21.2766C40.9013 21.0526 40.9179 20.8207 40.9938 20.6052C41.3346 19.6459 41.7485 18.1534 41.9068 16.8216C41.9847 16.1521 41.9896 15.5921 41.9214 15.1879C41.9061 15.0401 41.8614 14.8969 41.7899 14.7667C41.6223 14.7377 41.4504 14.7452 41.2859 14.7886C40.872 14.8665 40.3437 15.0613 39.7447 15.3584C38.5517 15.9476 37.31 16.8192 36.5406 17.4425C36.3709 17.5802 36.1685 17.6716 35.9531 17.7078C35.7376 17.7441 35.5164 17.724 35.3111 17.6494C33.3397 17.0046 31.2892 16.6335 29.2169 16.5465C26.7651 16.6049 23.936 17.3013 22.9694 17.6494C22.764 17.724 22.5428 17.7441 22.3273 17.7078C22.1119 17.6716 21.9095 17.5802 21.7398 17.4425C20.7448 16.6415 19.6713 15.9432 18.5357 15.3584C18.048 15.1023 17.5291 14.9108 16.9921 14.7886C16.8284 14.7455 16.6573 14.7381 16.4905 14.7667C16.4189 14.8969 16.3742 15.0401 16.359 15.1879C16.2909 15.5921 16.2957 16.1521 16.3736 16.8216C16.5319 18.1534 16.9482 19.6459 17.2867 20.6052C17.4401 21.0435 17.3451 21.5304 17.0335 21.8786C16.3615 22.6309 14.9006 24.9658 14.9006 27.7439C14.9006 29.7209 14.9834 31.0064 15.3097 32.1094C15.6262 33.1734 16.1959 34.1546 17.3402 35.4377C18.1145 36.2996 19.4098 37.0008 20.8584 37.5121C22.0436 37.9315 23.2705 38.2221 24.5179 38.3788C24.7745 38.4064 25.0167 38.5114 25.2121 38.68C25.4076 38.8485 25.5472 39.0726 25.6122 39.3223C25.6772 39.5721 25.6646 39.8358 25.5761 40.0783C25.4876 40.3207 25.3274 40.5305 25.1168 40.6797C24.7151 40.967 24.4497 41.4831 24.3012 42.0797C24.2245 42.3868 24.1788 42.7008 24.1648 43.017V43.0633C24.1679 43.372 24.0588 43.6713 23.8577 43.9055C23.6566 44.1398 23.3772 44.293 23.0716 44.3367Z" fill="#0C0C0D"/>
</svg>
