<svg width="56" height="56" viewBox="0 0 56 56" fill="none" xmlns="http://www.w3.org/2000/svg">
<path d="M27.9986 0C43.4622 0 55.9972 12.535 55.9972 27.9986C55.9972 43.4622 43.4622 55.9972 27.9986 55.9972C23.53 56.0034 19.1254 54.9356 15.1557 52.8837L4.4434 55.8712C3.84575 56.038 3.21449 56.0429 2.61432 55.8854C2.01415 55.7279 1.46663 55.4137 1.02788 54.9749C0.589124 54.5362 0.274904 53.9887 0.117414 53.3885C-0.0400769 52.7883 -0.035175 52.1571 0.131617 51.5594L3.12187 40.8555C1.06496 36.8824 -0.00579235 32.4726 2.35663e-05 27.9986C2.35663e-05 12.535 12.535 0 27.9986 0ZM27.9986 4.19979C21.6868 4.19979 15.6335 6.70716 11.1703 11.1703C6.70718 15.6334 4.19981 21.6868 4.19981 27.9986C4.19981 32.1144 5.24416 36.0706 7.20406 39.5816L7.62404 40.3376L4.5106 51.4922L15.6736 48.3788L16.4296 48.7987C19.6057 50.5646 23.144 51.5797 26.7733 51.7661C30.4025 51.9525 34.0262 51.3053 37.3665 49.8742C40.7068 48.443 43.675 46.2659 46.0436 43.5098C48.4121 40.7537 50.118 37.4918 51.0304 33.9743C51.9429 30.4567 52.0377 26.7769 51.3075 23.217C50.5774 19.6571 49.0417 16.3117 46.8183 13.4373C44.5948 10.5629 41.7426 8.23584 38.4804 6.63461C35.2182 5.03338 31.6326 4.20049 27.9986 4.19979ZM27.9986 37.7981C28.7412 37.7981 29.4533 38.0931 29.9784 38.6182C30.5035 39.1432 30.7985 39.8554 30.7985 40.598C30.7985 41.3405 30.5035 42.0527 29.9784 42.5778C29.4533 43.1028 28.7412 43.3978 27.9986 43.3978C27.256 43.3978 26.5439 43.1028 26.0188 42.5778C25.4937 42.0527 25.1988 41.3405 25.1988 40.598C25.1988 39.8554 25.4937 39.1432 26.0188 38.6182C26.5439 38.0931 27.256 37.7981 27.9986 37.7981ZM27.9986 13.2993C30.0407 13.2993 31.9991 14.1105 33.4431 15.5545C34.887 16.9985 35.6982 18.9569 35.6982 20.9989C35.6982 23.8268 34.8667 25.4059 32.7556 27.6038L32.2824 28.0826C30.5409 29.8241 30.0985 30.5633 30.0985 32.1984C30.0985 32.7553 29.8773 33.2894 29.4835 33.6832C29.0897 34.077 28.5555 34.2983 27.9986 34.2983C27.4417 34.2983 26.9076 34.077 26.5138 33.6832C26.12 33.2894 25.8987 32.7553 25.8987 32.1984C25.8987 29.3705 26.7303 27.7914 28.8414 25.5935L29.3146 25.1147C31.0561 23.3732 31.4984 22.6341 31.4984 20.9989C31.4955 20.1038 31.1497 19.2437 30.5321 18.5957C29.9145 17.9477 29.0721 17.5609 28.1781 17.515C27.2841 17.4691 26.4065 17.7676 25.7257 18.3489C25.045 18.9303 24.613 19.7504 24.5184 20.6406L24.4988 20.9989C24.4988 21.5559 24.2776 22.09 23.8837 22.4838C23.4899 22.8776 22.9558 23.0988 22.3989 23.0988C21.842 23.0988 21.3079 22.8776 20.914 22.4838C20.5202 22.09 20.299 21.5559 20.299 20.9989C20.299 18.9569 21.1102 16.9985 22.5542 15.5545C23.9981 14.1105 25.9566 13.2993 27.9986 13.2993Z" fill="white"/>
<path fill-rule="evenodd" clip-rule="evenodd" d="M27.9986 4.19979C21.6868 4.19979 15.6335 6.70716 11.1703 11.1703C6.70718 15.6334 4.19981 21.6868 4.19981 27.9986C4.19981 32.1144 5.24416 36.0706 7.20406 39.5816L7.62404 40.3376L4.5106 51.4922L15.6736 48.3788L16.4296 48.7987C19.6057 50.5646 23.144 51.5797 26.7733 51.7661C30.4025 51.9525 34.0262 51.3053 37.3665 49.8742C40.7068 48.443 43.675 46.2659 46.0436 43.5098C48.4121 40.7537 50.118 37.4918 51.0304 33.9743C51.9429 30.4567 52.0377 26.7769 51.3075 23.217C50.5774 19.6571 49.0417 16.3117 46.8183 13.4373C44.5948 10.5629 41.7426 8.23584 38.4804 6.63461C35.2182 5.03338 31.6326 4.20049 27.9986 4.19979ZM29.9784 38.6182C29.4533 38.0931 28.7412 37.7981 27.9986 37.7981C27.256 37.7981 26.5439 38.0931 26.0188 38.6182C25.4937 39.1432 25.1988 39.8554 25.1988 40.598C25.1988 41.3405 25.4937 42.0527 26.0188 42.5778C26.5439 43.1028 27.256 43.3978 27.9986 43.3978C28.7412 43.3978 29.4533 43.1028 29.9784 42.5778C30.5035 42.0527 30.7985 41.3405 30.7985 40.598C30.7985 39.8554 30.5035 39.1432 29.9784 38.6182ZM33.4431 15.5545C31.9991 14.1105 30.0407 13.2993 27.9986 13.2993C25.9566 13.2993 23.9981 14.1105 22.5542 15.5545C21.1102 16.9985 20.299 18.9569 20.299 20.9989C20.299 21.5559 20.5202 22.09 20.914 22.4838C21.3079 22.8776 21.842 23.0988 22.3989 23.0988C22.9558 23.0988 23.4899 22.8776 23.8837 22.4838C24.2776 22.09 24.4988 21.5559 24.4988 20.9989L24.5184 20.6406C24.613 19.7504 25.045 18.9303 25.7257 18.3489C26.4065 17.7676 27.2841 17.4691 28.1781 17.515C29.0721 17.5609 29.9145 17.9477 30.5321 18.5957C31.1497 19.2437 31.4955 20.1038 31.4984 20.9989C31.4984 22.6341 31.0561 23.3732 29.3146 25.1147L28.8414 25.5935C26.7303 27.7914 25.8987 29.3705 25.8987 32.1984C25.8987 32.7553 26.12 33.2894 26.5138 33.6832C26.9076 34.077 27.4417 34.2983 27.9986 34.2983C28.5555 34.2983 29.0897 34.077 29.4835 33.6832C29.8773 33.2894 30.0985 32.7553 30.0985 32.1984C30.0985 30.5633 30.5409 29.8241 32.2824 28.0826L32.7556 27.6038C34.8667 25.4059 35.6982 23.8268 35.6982 20.9989C35.6982 18.9569 34.887 16.9985 33.4431 15.5545Z" fill="white"/>
<path d="M27.9986 0C43.4622 0 55.9972 12.535 55.9972 27.9986C55.9972 43.4622 43.4622 55.9972 27.9986 55.9972C23.53 56.0033 19.1254 54.9356 15.1557 52.8837L4.4434 55.8712C3.84575 56.038 3.21449 56.0429 2.61432 55.8854C2.01415 55.7279 1.46663 55.4137 1.02788 54.9749C0.589124 54.5362 0.274904 53.9887 0.117414 53.3885C-0.0400769 52.7883 -0.035175 52.1571 0.131617 51.5594L3.12187 40.8555C1.06496 36.8824 -0.00579235 32.4726 2.35663e-05 27.9986C2.35663e-05 12.535 12.535 0 27.9986 0ZM27.9986 4.19979C21.6868 4.19979 15.6335 6.70716 11.1703 11.1703C6.70718 15.6334 4.19981 21.6868 4.19981 27.9986C4.19981 32.1144 5.24416 36.0706 7.20406 39.5816L7.62404 40.3376L4.5106 51.4922L15.6736 48.3788L16.4296 48.7987C19.6057 50.5646 23.144 51.5796 26.7733 51.7661C30.4025 51.9525 34.0262 51.3053 37.3665 49.8742C40.7068 48.443 43.675 46.2659 46.0436 43.5098C48.4121 40.7537 50.118 37.4918 51.0304 33.9743C51.9429 30.4567 52.0377 26.7769 51.3075 23.217C50.5774 19.6571 49.0417 16.3117 46.8183 13.4373C44.5948 10.5629 41.7426 8.23584 38.4804 6.63461C35.2182 5.03338 31.6326 4.20049 27.9986 4.19979ZM27.9986 37.7981C28.7412 37.7981 29.4533 38.0931 29.9784 38.6182C30.5035 39.1432 30.7985 39.8554 30.7985 40.598C30.7985 41.3405 30.5035 42.0527 29.9784 42.5778C29.4533 43.1028 28.7412 43.3978 27.9986 43.3978C27.256 43.3978 26.5439 43.1028 26.0188 42.5778C25.4937 42.0527 25.1988 41.3405 25.1988 40.598C25.1988 39.8554 25.4937 39.1432 26.0188 38.6182C26.5439 38.0931 27.256 37.7981 27.9986 37.7981ZM27.9986 13.2993C30.0407 13.2993 31.9991 14.1105 33.4431 15.5545C34.887 16.9985 35.6982 18.9569 35.6982 20.9989C35.6982 23.8268 34.8667 25.4059 32.7556 27.6038L32.2824 28.0826C30.5409 29.8241 30.0985 30.5633 30.0985 32.1984C30.0985 32.7553 29.8773 33.2894 29.4835 33.6832C29.0897 34.077 28.5555 34.2983 27.9986 34.2983C27.4417 34.2983 26.9076 34.077 26.5138 33.6832C26.12 33.2894 25.8987 32.7553 25.8987 32.1984C25.8987 29.3705 26.7303 27.7914 28.8414 25.5935L29.3146 25.1147C31.0561 23.3732 31.4984 22.6341 31.4984 20.9989C31.4955 20.1038 31.1497 19.2437 30.5321 18.5957C29.9145 17.9477 29.0721 17.5609 28.1781 17.515C27.2841 17.4691 26.4065 17.7676 25.7257 18.3489C25.045 18.9303 24.613 19.7504 24.5184 20.6406L24.4988 20.9989C24.4988 21.5559 24.2776 22.09 23.8837 22.4838C23.4899 22.8776 22.9558 23.0988 22.3989 23.0988C21.842 23.0988 21.3079 22.8776 20.914 22.4838C20.5202 22.09 20.299 21.5559 20.299 20.9989C20.299 18.9569 21.1102 16.9985 22.5542 15.5545C23.9981 14.1105 25.9566 13.2993 27.9986 13.2993Z" fill="#0C0C0D"/>
</svg>
